<svg width="472" height="59" viewBox="0 0 472 59" fill="none" xmlns="http://www.w3.org/2000/svg">
<path d="M470.5 57.5V59H472V57.5H470.5ZM12 57.5H10.5V59H12V57.5ZM13.0607 3.93934C12.4749 3.35355 11.5251 3.35355 10.9393 3.93934L1.3934 13.4853C0.807617 14.0711 0.807617 15.0208 1.3934 15.6066C1.97919 16.1924 2.92892 16.1924 3.51471 15.6066L12 7.12132L20.4853 15.6066C21.0711 16.1924 22.0208 16.1924 22.6066 15.6066C23.1924 15.0208 23.1924 14.0711 22.6066 13.4853L13.0607 3.93934ZM470.5 56L12 56V59L470.5 59V56ZM13.5 57.5V5H10.5V57.5H13.5ZM469 0.5V57.5H472V0.5H469Z" fill="white"/>
</svg>
