<svg width="30" height="30" viewBox="0 0 30 30" fill="none" xmlns="http://www.w3.org/2000/svg">
<path d="M27.7295 14.7951L15.6621 2.73655C15.5752 2.64949 15.472 2.58042 15.3584 2.5333C15.2448 2.48617 15.123 2.46191 15 2.46191C14.877 2.46191 14.7552 2.48617 14.6416 2.5333C14.528 2.58042 14.4248 2.64949 14.3379 2.73655L2.27051 14.7951C1.91895 15.1467 1.71973 15.6242 1.71973 16.1223C1.71973 17.1565 2.56055 17.9973 3.59473 17.9973H4.86621V26.6018C4.86621 27.1203 5.28516 27.5393 5.80371 27.5393H13.125V20.9768H16.4062V27.5393H24.1963C24.7148 27.5393 25.1338 27.1203 25.1338 26.6018V17.9973H26.4053C26.9033 17.9973 27.3809 17.801 27.7324 17.4465C28.4619 16.7141 28.4619 15.5276 27.7295 14.7951Z" fill="black"/>
</svg>
