<svg width="60" height="60" viewBox="0 0 60 60" fill="none" xmlns="http://www.w3.org/2000/svg">
<path d="M30 3.75C15.5039 3.75 3.75 15.5039 3.75 30C3.75 44.4961 15.5039 56.25 30 56.25C44.4961 56.25 56.25 44.4961 56.25 30C56.25 15.5039 44.4961 3.75 30 3.75ZM38.4434 30.4043L25.6465 39.7148C25.5763 39.7653 25.4936 39.7954 25.4075 39.8018C25.3213 39.8083 25.2351 39.7909 25.1582 39.7515C25.0813 39.7122 25.0167 39.6524 24.9716 39.5787C24.9264 39.5051 24.9025 39.4204 24.9023 39.334V20.7246C24.9021 20.638 24.9258 20.5531 24.9708 20.4792C25.0158 20.4052 25.0805 20.3452 25.1575 20.3058C25.2346 20.2664 25.3211 20.249 25.4074 20.2557C25.4937 20.2624 25.5764 20.2929 25.6465 20.3438L38.4434 29.6484C38.5038 29.6912 38.5531 29.7478 38.5872 29.8136C38.6212 29.8794 38.639 29.9523 38.639 30.0264C38.639 30.1004 38.6212 30.1734 38.5872 30.2391C38.5531 30.3049 38.5038 30.3615 38.4434 30.4043Z" fill="white"/>
</svg>
