<svg width="60" height="60" viewBox="0 0 60 60" fill="none" xmlns="http://www.w3.org/2000/svg">
<path d="M28.4531 14.6426L11.6133 29.1797C11.127 29.5958 11.127 30.3985 11.6133 30.8145L28.4531 45.3575C29.0801 45.8965 30 45.4102 30 44.5372V15.4571C30 14.5899 29.0801 14.0977 28.4531 14.6426ZM47.2031 14.6426L30.3633 29.1797C30.248 29.2829 30.156 29.4093 30.0933 29.5508C30.0307 29.6922 29.9989 29.8454 30 30.0001C30 30.3047 30.123 30.6094 30.3633 30.8204L47.2031 45.3633C47.8301 45.9024 48.75 45.4161 48.75 44.543V15.4571C48.75 14.5899 47.8301 14.0977 47.2031 14.6426Z" fill="white"/>
</svg>
